<svg width="24" height="24" viewBox="0 0 24 24" fill="none" xmlns="http://www.w3.org/2000/svg">
<path d="M14.0571 11.4946L12.1323 13.2751L10.2075 11.4946" stroke="#009DDB" stroke-width="2" stroke-miterlimit="10" stroke-linecap="round" stroke-linejoin="round"/>
<path d="M12.1804 13.4678V15.6137" stroke="#009DDB" stroke-width="2" stroke-miterlimit="10" stroke-linecap="round" stroke-linejoin="round"/>
<path d="M9.77441 16.3547H14.5864" stroke="#009DDB" stroke-width="2" stroke-miterlimit="10" stroke-linecap="round" stroke-linejoin="round"/>
<path d="M6.93527 9.71428C6.69467 11.2541 7.12775 12.6977 7.99391 13.8045C9.19691 15.3443 9.77435 17.2691 9.77435 19.1939C9.77435 20.5413 10.833 21.5999 12.1803 21.5999C13.5277 21.5999 14.5863 20.5413 14.5863 19.1939V18.9533C14.5863 17.0285 15.3081 15.1999 16.463 13.6601C17.0886 12.794 17.4735 11.6872 17.4735 10.5323C17.4735 7.40452 14.7788 4.90228 11.5548 5.28724C9.19691 5.57596 7.27211 7.40452 6.93527 9.71428Z" stroke="#009DDB" stroke-width="2" stroke-miterlimit="10" stroke-linecap="round" stroke-linejoin="round"/>
<path d="M12.1804 2.40015V3.84374" stroke="#009DDB" stroke-width="2" stroke-miterlimit="10" stroke-linecap="round" stroke-linejoin="round"/>
<path d="M4 10.5806H5.44363" stroke="#009DDB" stroke-width="2" stroke-miterlimit="10" stroke-linecap="round" stroke-linejoin="round"/>
<path d="M18.9172 10.5806H19.9999" stroke="#009DDB" stroke-width="2" stroke-miterlimit="10" stroke-linecap="round" stroke-linejoin="round"/>
<path d="M6.8872 15.3926L5.9248 16.355" stroke="#009DDB" stroke-width="2" stroke-miterlimit="10" stroke-linecap="round" stroke-linejoin="round"/>
<path d="M17.9548 4.32495L16.9924 5.28735" stroke="#009DDB" stroke-width="2" stroke-miterlimit="10" stroke-linecap="round" stroke-linejoin="round"/>
<path d="M17.4736 15.8738L18.436 16.8362" stroke="#009DDB" stroke-width="2" stroke-miterlimit="10" stroke-linecap="round" stroke-linejoin="round"/>
<path d="M5.9248 4.32495L6.8872 5.28735" stroke="#009DDB" stroke-width="2" stroke-miterlimit="10" stroke-linecap="round" stroke-linejoin="round"/>
</svg>
