<svg width="24" height="24" viewBox="0 0 24 24" fill="none" xmlns="http://www.w3.org/2000/svg">
<mask id="path-1-inside-1_59_1626" fill="white">
<path fill-rule="evenodd" clip-rule="evenodd" d="M5 19C2.23858 19 0 16.7615 0 14C0 11.8233 1.39095 9.97148 3.3325 9.28485C4.27737 6.22404 7.12896 4 10.5 4C12.7933 4 14.8462 5.02929 16.2219 6.65109C16.4755 6.61147 16.7353 6.59091 17 6.59091C19.7427 6.59091 21.9697 8.79931 21.9997 11.535C23.1955 12.2265 24 13.5193 24 15C24 17.2091 22.2091 19 20 19L20 19L5 19Z"/>
</mask>
<path d="M5 19L5 17H5V19ZM3.3325 9.28485L3.99933 11.1704C4.59558 10.9595 5.05697 10.4791 5.24352 9.87478L3.3325 9.28485ZM16.2219 6.65109L14.6967 7.94485C15.1475 8.47621 15.8423 8.73468 16.5307 8.62711L16.2219 6.65109ZM21.9997 11.535L19.9998 11.5569C20.0076 12.263 20.3871 12.9127 20.9984 13.2663L21.9997 11.535ZM20 19V17C19.4401 17 18.9058 17.2347 18.527 17.6471C18.1483 18.0594 17.9597 18.6117 18.0072 19.1696L20 19ZM20 19L20 21C20.5599 21 21.0942 20.7653 21.473 20.353C21.8517 19.9406 22.0403 19.3883 21.9928 18.8304L20 19ZM5 17C3.34315 17 2 15.6569 2 14H-2C-2 17.866 1.13401 21 5 21V17ZM2 14C2 12.6971 2.83169 11.5833 3.99933 11.1704L2.66567 7.39929C-0.0498014 8.35961 -2 10.9495 -2 14H2ZM5.24352 9.87478C5.93694 7.6285 8.03091 6 10.5 6V2C6.22702 2 2.61781 4.81957 1.42148 8.69492L5.24352 9.87478ZM10.5 6C12.1812 6 13.6848 6.75188 14.6967 7.94485L17.7471 5.35733C16.0076 3.30669 13.4054 2 10.5 2V6ZM16.5307 8.62711C16.6825 8.6034 16.8391 8.59091 17 8.59091V4.59091C16.6316 4.59091 16.2685 4.61955 15.9132 4.67507L16.5307 8.62711ZM17 8.59091C18.6455 8.59091 19.9818 9.91598 19.9998 11.5569L23.9996 11.513C23.9576 7.68263 20.84 4.59091 17 4.59091V8.59091ZM20.9984 13.2663C21.6015 13.6151 22 14.2622 22 15H26C26 12.7764 24.7894 10.838 23.001 9.80365L20.9984 13.2663ZM22 15C22 16.1046 21.1046 17 20 17V21C23.3137 21 26 18.3137 26 15H22ZM18.0072 19.1696L18.0072 19.1696L21.9928 18.8304L21.9928 18.8304L18.0072 19.1696ZM20 17L5 17L5 21L20 21L20 17Z" fill="#009DDB" mask="url(#path-1-inside-1_59_1626)"/>
</svg>
