<svg width="24" height="24" viewBox="0 0 24 24">
  <path fill="#000" fill-rule="evenodd" clip-rule="evenodd" d="M5.24352 9.87476C5.05697 10.4791 4.59558 10.9595 3.99933 11.1704C2.83169 11.5833 2 12.6971 2 14C2 15.6569 3.34315 17 5 17L19.9866 17C19.9911 17 19.9955 17 20 17C21.1046 17 22 16.1045 22 15C22 14.2621 21.6015 13.615 20.9984 13.2662C20.3871 12.9127 20.0076 12.263 19.9998 11.5569C19.9818 9.91596 18.6455 8.5909 17 8.5909C16.8391 8.5909 16.6825 8.60339 16.5307 8.6271C15.8423 8.73467 15.1475 8.47619 14.6967 7.94484C13.6848 6.75187 12.1812 5.99999 10.5 5.99999C8.03091 5.99999 5.93694 7.62849 5.24352 9.87476ZM20 19L5 19C2.23858 19 0 16.7614 0 14C0 11.8233 1.39095 9.97146 3.3325 9.28483C4.27737 6.22403 7.12896 4 10.5 4C12.7933 4 14.8462 5.02928 16.2219 6.65108C16.4755 6.61147 16.7353 6.5909 17 6.5909C19.7427 6.5909 21.9697 8.79929 21.9997 11.5349C23.1955 12.2265 24 13.5193 24 15C24 16.9761 22.567 18.6175 20.6835 18.9418C20.6837 18.9418 20.6834 18.9418 20.6835 18.9418C20.4618 18.9799 20.2327 18.9999 20 19C20.0002 19 19.9998 19 20 19Z" />
</svg>
