<svg width="24" height="24" viewBox="0 0 24 24" fill="none" xmlns="http://www.w3.org/2000/svg">
<path d="M21 22L21 6C21 5.46957 20.7893 4.96086 20.4142 4.58579C20.0391 4.21071 19.5304 4 19 4L5 4C4.46957 4 3.96086 4.21071 3.58579 4.58579C3.21071 4.96086 3 5.46957 3 6L3 17C3 17.5304 3.21071 18.0391 3.58579 18.4142C3.96086 18.7893 4.46957 19 5 19L17 19L21 22Z" stroke="#009DDB" stroke-width="2" stroke-linecap="round" stroke-linejoin="round"/>
<circle cx="8.5" cy="9.5" r="1.5" fill="#009DDB"/>
<circle cx="15.5" cy="9.5" r="1.5" fill="#009DDB"/>
<path d="M15.3005 16H8.69951C7.93703 16 7.50433 15.2031 8.05495 14.6757C8.94603 13.8221 10.2903 13 12 13C13.7097 13 15.054 13.8221 15.9451 14.6757C16.4957 15.2031 16.063 16 15.3005 16Z" fill="#009DDB"/>
</svg>
