<svg width="24" height="24" fill="#000" viewBox="0 0 24 24">
<path fill-rule="evenodd" d="M5 8.477 3.534 11.8h2.932L5 8.477ZM6.784 13.8H3.216C3.556 14.53 4.256 15 5 15s1.443-.469 1.784-1.2ZM3.902 6.01c.421-.954 1.775-.954 2.196 0L9 12.589v.21C9 15.059 7.269 17 5 17s-4-1.941-4-4.2v-.21l2.902-6.578ZM19 8.477 17.534 11.8h2.932L19 8.477Zm1.784 5.323h-3.568c.34.731 1.04 1.2 1.784 1.2s1.443-.469 1.784-1.2ZM17.902 6.01c.421-.954 1.775-.954 2.196 0L23 12.589v.21c0 2.259-1.731 4.2-4 4.2s-4-1.941-4-4.2v-.21l2.902-6.578Z" clip-rule="evenodd"/>
<path fill-rule="evenodd" d="M12 2a1 1 0 0 1 1 1v1.5h6.5a1 1 0 1 1 0 2H13v12a1 1 0 1 1-2 0v-12H4.5a1 1 0 0 1 0-2H11V3a1 1 0 0 1 1-1Z" clip-rule="evenodd"/>
<path fill-rule="evenodd" d="M8.268 17.312C9.255 17.115 10.574 17 12 17c1.426 0 2.745.115 3.732.312.485.097.942.224 1.303.395.177.084.385.203.562.376.18.175.403.484.403.917 0 .433-.224.742-.403.917a2.065 2.065 0 0 1-.563.376c-.36.17-.817.298-1.302.395-.987.197-2.306.312-3.732.312-1.426 0-2.745-.115-3.732-.312-.485-.097-.942-.224-1.303-.395a2.064 2.064 0 0 1-.562-.376A1.282 1.282 0 0 1 6 19c0-.433.224-.742.403-.917.177-.173.385-.292.562-.376.36-.17.818-.298 1.303-.395Z" clip-rule="evenodd"/>
</svg>