<svg width="32" height="32" viewBox="0 0 32 32" fill="none" xmlns="http://www.w3.org/2000/svg">
<path d="M13.8695 6.261C15.0462 6.261 16 5.30714 16 4.1305C16 2.95386 15.0462 2 13.8695 2C12.6929 2 11.739 2.95386 11.739 4.1305C11.739 5.30714 12.6929 6.261 13.8695 6.261Z" fill="#009DDB"/>
<path d="M28.7575 22.5297L25.7611 23.2788L24.5625 17.6855C24.4892 17.3506 24.304 17.0506 24.0374 16.8351C23.7708 16.6195 23.4387 16.5013 23.0958 16.4998H17.5517L17.1479 12.9998H24V10.9998H16.9171L16.6587 8.76069C16.6362 8.56501 16.5753 8.37568 16.4795 8.20353C16.3838 8.03138 16.2551 7.87978 16.1007 7.75737C15.9464 7.63497 15.7695 7.54416 15.58 7.49013C15.3906 7.43611 15.1924 7.41992 14.9967 7.44251L12.5132 7.72907L13.7562 18.4998H22.6919L24.2392 25.7209L29.2428 24.4699L28.7575 22.5297Z" fill="#009DDB"/>
<path d="M14 28.0001C12.2611 27.9999 10.5764 27.3954 9.23396 26.2901C7.89155 25.1849 6.9749 23.6475 6.64084 21.941C6.30677 20.2345 6.57604 18.465 7.40259 16.9351C8.22913 15.4053 9.56159 14.2101 11.172 13.5542L10.9358 11.5073C7.19644 12.785 4.5 16.3335 4.5 20.5001C4.5 25.7384 8.76169 30.0001 14 30.0001C15.6348 29.9993 17.2418 29.5768 18.6656 28.7734C20.0894 27.97 21.2818 26.813 22.1278 25.414L21.5 22.5001C20.5 25.5001 17.6625 28.0001 14 28.0001Z" fill="#009DDB"/>
</svg>
