<svg width="24" height="24" viewBox="0 0 24 24">
<path d="M2.99966 11.1748L2.09207 11.5947C1.95361 11.2954 1.97162 10.947 2.1402 10.6636L2.99966 11.1748ZM20.8242 11.1748L21.4313 10.3801C21.6617 10.5561 21.8043 10.8235 21.8223 11.1128C21.8403 11.4022 21.7318 11.6851 21.5249 11.8882L20.8242 11.1748ZM17.2044 10.1072C16.7147 9.85165 16.5249 9.24761 16.7805 8.75798C17.036 8.26835 17.64 8.07855 18.1296 8.33405L17.2044 10.1072ZM12.4953 17.1254C11.9554 17.2413 11.4236 16.8976 11.3077 16.3576C11.1917 15.8176 11.5354 15.2859 12.0754 15.1699L12.4953 17.1254ZM10.4745 8.1499C8.21779 8.1499 6.56525 9.03883 5.46381 9.93726C4.9111 10.3881 4.50121 10.8387 4.232 11.1731C4.09779 11.3398 3.99973 11.4761 3.93747 11.567C3.90638 11.6124 3.88433 11.6463 3.87126 11.6668C3.86473 11.677 3.86046 11.6839 3.85844 11.6872C3.85743 11.6888 3.85698 11.6896 3.85709 11.6894C3.85715 11.6893 3.85735 11.689 3.85769 11.6884C3.85786 11.6881 3.85806 11.6878 3.8583 11.6874C3.85842 11.6872 3.85863 11.6868 3.85869 11.6867C3.85891 11.6864 3.85913 11.686 2.99966 11.1748C2.1402 10.6636 2.14044 10.6632 2.14069 10.6628C2.14079 10.6626 2.14105 10.6622 2.14124 10.6619C2.14163 10.6612 2.14205 10.6605 2.14251 10.6597C2.14344 10.6582 2.14451 10.6564 2.14574 10.6544C2.1482 10.6503 2.15126 10.6453 2.15493 10.6393C2.16228 10.6274 2.17207 10.6117 2.18431 10.5924C2.2088 10.554 2.24314 10.5014 2.28743 10.4368C2.37594 10.3075 2.5046 10.1294 2.6742 9.91876C3.01263 9.49844 3.51877 8.94284 4.19966 8.38745C5.5654 7.27343 7.65027 6.1499 10.4745 6.1499V8.1499ZM14.0819 8.77932C12.896 8.39673 11.6656 8.1499 10.4745 8.1499V6.1499C11.9319 6.1499 13.3755 6.4499 14.696 6.87592L14.0819 8.77932ZM2.99966 11.1748C3.90725 10.7549 3.90712 10.7547 3.907 10.7544C3.90696 10.7543 3.90684 10.7541 3.90678 10.7539C3.90664 10.7536 3.90653 10.7534 3.90644 10.7532C3.90627 10.7528 3.9062 10.7527 3.90622 10.7527C3.90627 10.7528 3.90671 10.7538 3.90755 10.7555C3.90921 10.759 3.91245 10.7658 3.91725 10.7756C3.92687 10.7952 3.94274 10.8271 3.96492 10.8698C4.0093 10.9552 4.07865 11.0835 4.17319 11.2433C4.36279 11.5639 4.65064 12.0064 5.03768 12.4832C5.81953 13.4464 6.95922 14.4922 8.45826 15.0126L7.80238 16.902C5.82488 16.2155 4.39924 14.8701 3.48489 13.7437C3.02384 13.1758 2.68087 12.6489 2.45169 12.2614C2.33683 12.0672 2.2498 11.9067 2.19014 11.7918C2.16029 11.7344 2.13724 11.6882 2.12092 11.6549C2.11276 11.6382 2.10629 11.6248 2.10148 11.6147C2.09908 11.6096 2.09709 11.6054 2.09553 11.6021C2.09474 11.6004 2.09406 11.5989 2.09349 11.5977C2.0932 11.5971 2.09294 11.5965 2.0927 11.596C2.09258 11.5958 2.09243 11.5954 2.09237 11.5953C2.09222 11.595 2.09207 11.5947 2.99966 11.1748ZM20.8242 11.1748C20.2172 11.9695 20.2173 11.9695 20.2173 11.9696C20.2174 11.9696 20.2174 11.9697 20.2175 11.9697C20.2175 11.9698 20.2176 11.9698 20.2176 11.9698C20.2177 11.9699 20.2177 11.9699 20.2177 11.9698C20.2175 11.9697 20.2171 11.9694 20.2163 11.9688C20.2149 11.9677 20.2122 11.9657 20.2083 11.9628C20.2005 11.9569 20.188 11.9476 20.1709 11.9349C20.1368 11.9096 20.0843 11.8711 20.0147 11.8214C19.8756 11.7218 19.6685 11.5771 19.4034 11.402C18.8724 11.0514 18.1129 10.5813 17.2044 10.1072L18.1296 8.33405C19.1114 8.84637 19.9306 9.35339 20.5056 9.73319C20.7935 9.92334 21.0213 10.0823 21.1787 10.195C21.2575 10.2514 21.3187 10.2962 21.3612 10.3277C21.3825 10.3434 21.3991 10.3558 21.4108 10.3646C21.4166 10.369 21.4213 10.3726 21.4247 10.3751C21.4264 10.3764 21.4278 10.3775 21.4289 10.3783C21.4295 10.3788 21.4299 10.3791 21.4303 10.3794C21.4305 10.3796 21.4307 10.3797 21.4309 10.3798C21.4309 10.3799 21.431 10.38 21.4311 10.38C21.4312 10.3801 21.4313 10.3801 20.8242 11.1748ZM12.0754 15.1699C14.1043 14.7342 16.108 13.581 17.643 12.4883C18.4016 11.9483 19.0271 11.4366 19.4616 11.0609C19.6786 10.8734 19.8471 10.7205 19.96 10.6159C20.0164 10.5636 20.0589 10.5234 20.0864 10.4971C20.1002 10.4839 20.1103 10.4742 20.1165 10.4682C20.1196 10.4652 20.1217 10.4631 20.1229 10.4619C20.1235 10.4614 20.1238 10.461 20.1239 10.4609C20.124 10.4609 20.124 10.4609 20.1239 10.461C20.1239 10.461 20.1238 10.4611 20.1238 10.4611C20.1236 10.4612 20.1235 10.4614 20.8242 11.1748C21.5249 11.8882 21.5248 11.8884 21.5246 11.8886C21.5245 11.8887 21.5243 11.8889 21.5242 11.889C21.5238 11.8893 21.5234 11.8897 21.523 11.8901C21.5221 11.891 21.521 11.8921 21.5196 11.8935C21.5168 11.8962 21.513 11.8999 21.5082 11.9045C21.4987 11.9138 21.4852 11.9267 21.468 11.9432C21.4334 11.9762 21.3837 12.0233 21.3195 12.0827C21.1913 12.2015 21.0056 12.37 20.7695 12.574C20.2981 12.9815 19.6229 13.5339 18.8028 14.1177C17.1805 15.2726 14.9147 16.6058 12.4953 17.1254L12.0754 15.1699Z" fill="#009DDB"/>
<path fill-rule="evenodd" clip-rule="evenodd" d="M14.4039 8.20888C13.6 7.45891 12.5211 7 11.335 7C8.84968 7 6.83496 9.01472 6.83496 11.5C6.83496 13.1221 7.69324 14.5438 8.98044 15.3356L14.4039 8.20888ZM8.83496 10.5C8.83496 11.3284 9.50653 12 10.335 12C11.1634 12 11.835 11.3284 11.835 10.5C11.835 9.67157 11.1634 9 10.335 9C9.50653 9 8.83496 9.67157 8.83496 10.5Z" fill="#009DDB"/>
<path d="M16.835 5L6.83496 18" stroke="#009DDB" stroke-width="2" stroke-linecap="round" stroke-linejoin="round"/>
</svg>
