<svg width="40" height="40" viewBox="0 0 40 40" fill="none" xmlns="http://www.w3.org/2000/svg">
<g clip-path="url(#clip0_59_1565)">
<path d="M18.6289 0.047384C11.8082 0.532778 5.78659 4.37878 2.45845 10.3705C-0.82274 16.2915 -0.82274 23.7402 2.45845 29.6458C5.63761 35.3791 11.3306 39.1855 17.8069 39.906C18.864 40.0313 21.135 40.0313 22.1922 39.906C29.6003 39.0756 35.9508 34.1964 38.6761 27.2258C39.9916 23.85 40.3442 19.8322 39.6471 16.1821C38.2455 8.8902 32.7088 2.8438 25.5595 0.783841C23.3668 0.149441 20.853 -0.116727 18.6289 0.047384ZM24.8546 11.24V13.1199H23.5623C21.6358 13.1199 21.644 13.1122 21.644 14.9995V16.2528H23.2885H24.9329V16.4642C24.9329 16.5896 24.8623 17.4199 24.7762 18.3282C24.6901 19.2288 24.6195 19.9808 24.6195 19.9885C24.6195 20.004 23.9538 20.0122 23.1317 20.0122H21.644V25.3381V30.6639H19.373H17.102V25.3381V20.0122H16.084H15.0661V18.1323V16.2523H16.0763H17.0865L17.1257 14.5839C17.1649 12.7668 17.2355 12.3516 17.6583 11.4825C17.9795 10.8326 18.6371 10.1745 19.295 9.8614C19.7338 9.64993 19.9763 9.57931 20.822 9.40703C20.9081 9.39152 21.8477 9.3756 22.9207 9.36784L24.855 9.36008V11.24H24.8546Z" fill="#D0D6DE"/>
</g>
<defs>
<clipPath id="clip0_59_1565">
<rect width="40" height="40" fill="white"/>
</clipPath>
</defs>
</svg>
