<svg width="40" height="40" viewBox="0 0 40 40">
  <path fill="#000" d="M18.6294 0.047384C11.8087 0.532778 5.78708 4.37878 2.45894 10.3705C-0.822252 16.2915 -0.822252 23.7402 2.45894 29.6458C5.6381 35.3791 11.3311 39.1855 17.8074 39.906C18.8645 40.0313 21.1355 40.0313 22.1926 39.906C29.6007 39.0756 35.9513 34.1964 38.6766 27.2258C39.9921 23.85 40.3447 19.8322 39.6476 16.1821C38.246 8.8902 32.7093 2.8438 25.56 0.783841C23.3673 0.149441 20.8535 -0.116727 18.6294 0.047384ZM24.8551 11.24V13.1199H23.5628C21.6363 13.1199 21.6445 13.1122 21.6445 14.9995V16.2528H23.289H24.9334V16.4642C24.9334 16.5896 24.8628 17.4199 24.7767 18.3282C24.6906 19.2288 24.62 19.9808 24.62 19.9885C24.62 20.004 23.9543 20.0122 23.1322 20.0122H21.6445V25.3381V30.6639H19.3735H17.1025V25.3381V20.0122H16.0845H15.0666V18.1323V16.2523H16.0768H17.087L17.1262 14.5839C17.1653 12.7668 17.236 12.3516 17.6588 11.4825C17.98 10.8326 18.6376 10.1745 19.2955 9.8614C19.7343 9.64993 19.9767 9.57931 20.8224 9.40703C20.9086 9.39152 21.8482 9.3756 22.9212 9.36784L24.8555 9.36008V11.24H24.8551Z" />
</svg>
