<svg viewBox="0 0 24 24" fill="none" xmlns="http://www.w3.org/2000/svg">
  <path d="M12 12a2.667 2.667 0 1 1 5.333 0A2.667 2.667 0 0 1 12 12Z" fill="#1ABCFE"></path>
  <path d="M6.667 12a2.667 2.667 0 0 1 2.666-2.667H12v5.334H9.333A2.667 2.667 0 0 1 6.667 12Z" fill="#A259FF"></path>
  <path d="M6.667 6.667A2.667 2.667 0 0 1 9.333 4H12v5.333H9.333a2.667 2.667 0 0 1-2.666-2.666Z" fill="#F24E1E"></path>
  <path d="M12 9.333V4h2.667a2.667 2.667 0 0 1 0 5.333H12Z" fill="#FF7262"></path>
  <path d="M9.333 20a2.667 2.667 0 1 1 0-5.333H12v2.666A2.667 2.667 0 0 1 9.333 20Z" fill="#0ACF83"></path>
</svg>