<svg width="24" height="24" viewBox="0 0 24 24" fill="none" xmlns="http://www.w3.org/2000/svg">
<path d="M11 20C15.9706 20 20 15.9706 20 11C20 6.02944 15.9706 2 11 2C6.02944 2 2 6.02944 2 11C2 15.9706 6.02944 20 11 20Z" stroke="#009DDB" stroke-width="2" stroke-linecap="round" stroke-linejoin="round"/>
<path d="M21 21L18 18" stroke="#009DDB" stroke-width="2" stroke-linecap="round" stroke-linejoin="round"/>
<path d="M6 9.07692C6 8.03846 6.95939 7 8.14286 7C10.2857 7 11 9.07692 11 9.07692C11 9.07692 11.7143 7 13.8571 7C14.9286 7 16 8.03846 16 9.07692C16 13.2308 11 16 11 16C11 16 6 13.2308 6 9.07692Z" stroke="#009DDB" stroke-width="2" stroke-linejoin="round"/>
</svg>
