<svg width="24" height="24" viewBox="0 0 24 24" fill="none" xmlns="http://www.w3.org/2000/svg">
<path d="M3 3H15" stroke="#009DDB" stroke-width="2" stroke-linecap="round" stroke-linejoin="round"/>
<path d="M3 7H15" stroke="#009DDB" stroke-width="2" stroke-linecap="round" stroke-linejoin="round"/>
<path d="M19 3H21" stroke="#009DDB" stroke-width="2" stroke-linecap="round" stroke-linejoin="round"/>
<path d="M19 7H21" stroke="#009DDB" stroke-width="2" stroke-linecap="round" stroke-linejoin="round"/>
<path d="M3.1647 16.1748L2.25711 16.5947C2.11865 16.2954 2.13666 15.947 2.30523 15.6636L3.1647 16.1748ZM20.9893 16.1748L21.5963 15.3801C21.8267 15.5561 21.9694 15.8235 21.9873 16.1128C22.0053 16.4022 21.8968 16.6851 21.69 16.8882L20.9893 16.1748ZM17.3694 15.1072C16.8798 14.8517 16.69 14.2476 16.9455 13.758C17.201 13.2683 17.805 13.0785 18.2947 13.3341L17.3694 15.1072ZM12.6604 22.1254C12.1204 22.2413 11.5887 21.8976 11.4727 21.3576C11.3568 20.8176 11.7005 20.2859 12.2405 20.1699L12.6604 22.1254ZM10.6395 13.1499C8.38283 13.1499 6.73029 14.0388 5.62885 14.9373C5.07614 15.3881 4.66625 15.8387 4.39704 16.1731C4.26282 16.3398 4.16477 16.4761 4.10251 16.567C4.07142 16.6124 4.04936 16.6463 4.0363 16.6668C4.02977 16.677 4.0255 16.6839 4.02348 16.6872C4.02246 16.6888 4.02202 16.6896 4.02213 16.6894C4.02219 16.6893 4.02239 16.689 4.02273 16.6884C4.0229 16.6881 4.0231 16.6878 4.02334 16.6874C4.02346 16.6872 4.02367 16.6868 4.02373 16.6867C4.02394 16.6864 4.02417 16.686 3.1647 16.1748C2.30523 15.6636 2.30548 15.6632 2.30573 15.6628C2.30582 15.6626 2.30609 15.6622 2.30628 15.6619C2.30667 15.6612 2.30709 15.6605 2.30755 15.6597C2.30848 15.6582 2.30955 15.6564 2.31078 15.6544C2.31323 15.6503 2.3163 15.6453 2.31997 15.6393C2.32732 15.6274 2.33711 15.6117 2.34935 15.5924C2.37384 15.554 2.40818 15.5014 2.45246 15.4368C2.54097 15.3075 2.66964 15.1294 2.83924 14.9188C3.17767 14.4984 3.68381 13.9428 4.36469 13.3874C5.73044 12.2734 7.81531 11.1499 10.6395 11.1499V13.1499ZM14.2469 13.7793C13.0611 13.3967 11.8306 13.1499 10.6395 13.1499V11.1499C12.0969 11.1499 13.5405 11.4499 14.861 11.8759L14.2469 13.7793ZM3.1647 16.1748C4.07229 15.7549 4.07216 15.7547 4.07203 15.7544C4.072 15.7543 4.07188 15.7541 4.07181 15.7539C4.07168 15.7536 4.07157 15.7534 4.07148 15.7532C4.07131 15.7528 4.07124 15.7527 4.07126 15.7527C4.07131 15.7528 4.07175 15.7538 4.07259 15.7555C4.07425 15.759 4.07749 15.7658 4.08229 15.7756C4.09191 15.7952 4.10778 15.8271 4.12995 15.8698C4.17434 15.9552 4.24369 16.0835 4.33822 16.2433C4.52783 16.5639 4.81568 17.0064 5.20272 17.4832C5.98456 18.4464 7.12425 19.4922 8.6233 20.0126L7.96742 21.902C5.98992 21.2155 4.56428 19.8701 3.64993 18.7437C3.18888 18.1758 2.84591 17.6489 2.61673 17.2614C2.50187 17.0672 2.41484 16.9067 2.35518 16.7918C2.32533 16.7344 2.30228 16.6882 2.28596 16.6549C2.2778 16.6382 2.27132 16.6248 2.26652 16.6147C2.26412 16.6096 2.26213 16.6054 2.26056 16.6021C2.25978 16.6004 2.2591 16.5989 2.25853 16.5977C2.25824 16.5971 2.25798 16.5965 2.25774 16.596C2.25762 16.5958 2.25746 16.5954 2.25741 16.5953C2.25726 16.595 2.25711 16.5947 3.1647 16.1748ZM20.9893 16.1748C20.3822 16.9695 20.3823 16.9695 20.3824 16.9696C20.3824 16.9696 20.3825 16.9697 20.3825 16.9697C20.3826 16.9698 20.3826 16.9698 20.3827 16.9698C20.3828 16.9699 20.3828 16.9699 20.3827 16.9698C20.3826 16.9697 20.3821 16.9694 20.3814 16.9688C20.3799 16.9677 20.3772 16.9657 20.3733 16.9628C20.3656 16.9569 20.3531 16.9476 20.336 16.9349C20.3018 16.9096 20.2493 16.8711 20.1798 16.8214C20.0406 16.7218 19.8335 16.5771 19.5684 16.402C19.0374 16.0514 18.278 15.5813 17.3694 15.1072L18.2947 13.3341C19.2765 13.8464 20.0956 14.3534 20.6706 14.7332C20.9586 14.9233 21.1863 15.0823 21.3438 15.195C21.4225 15.2514 21.4838 15.2962 21.5263 15.3277C21.5475 15.3434 21.5641 15.3558 21.5758 15.3646C21.5817 15.369 21.5863 15.3726 21.5897 15.3751C21.5915 15.3764 21.5929 15.3775 21.594 15.3783C21.5945 15.3788 21.595 15.3791 21.5954 15.3794C21.5956 15.3796 21.5957 15.3797 21.5959 15.3798C21.596 15.3799 21.5961 15.38 21.5961 15.38C21.5962 15.3801 21.5963 15.3801 20.9893 16.1748ZM12.2405 20.1699C14.2693 19.7342 16.273 18.581 17.808 17.4883C18.5667 16.9483 19.1921 16.4366 19.6266 16.0609C19.8436 15.8734 20.0122 15.7205 20.125 15.6159C20.1814 15.5636 20.2239 15.5234 20.2515 15.4971C20.2652 15.4839 20.2753 15.4742 20.2815 15.4682C20.2846 15.4652 20.2868 15.4631 20.288 15.4619C20.2885 15.4614 20.2889 15.461 20.289 15.4609C20.289 15.4609 20.289 15.4609 20.2889 15.461C20.2889 15.461 20.2888 15.4611 20.2888 15.4611C20.2887 15.4612 20.2885 15.4614 20.9893 16.1748C21.69 16.8882 21.6898 16.8884 21.6896 16.8886C21.6895 16.8887 21.6894 16.8889 21.6892 16.889C21.6889 16.8893 21.6885 16.8897 21.688 16.8901C21.6871 16.891 21.686 16.8921 21.6846 16.8935C21.6818 16.8962 21.678 16.8999 21.6733 16.9045C21.6637 16.9138 21.6503 16.9267 21.633 16.9432C21.5985 16.9762 21.5487 17.0233 21.4846 17.0827C21.3564 17.2015 21.1706 17.37 20.9346 17.574C20.4631 17.9815 19.7879 18.5339 18.9679 19.1177C17.3455 20.2726 15.0798 21.6058 12.6604 22.1254L12.2405 20.1699Z" fill="#009DDB"/>
<path fill-rule="evenodd" clip-rule="evenodd" d="M14.569 13.2089C13.7651 12.4589 12.6861 12 11.5 12C9.01472 12 7 14.0147 7 16.5C7 18.1221 7.85827 19.5438 9.14548 20.3356L14.569 13.2089ZM9 15.5C9 16.3284 9.67157 17 10.5 17C11.3284 17 12 16.3284 12 15.5C12 14.6716 11.3284 14 10.5 14C9.67157 14 9 14.6716 9 15.5Z" fill="#009DDB"/>
<path d="M17 10L7 23" stroke="#009DDB" stroke-width="2" stroke-linecap="round" stroke-linejoin="round"/>
</svg>
