<svg width="24" height="24" viewBox="0 0 24 24" fill="none" xmlns="http://www.w3.org/2000/svg">
<path d="M3.50006 3C2.00006 3 1.50006 4.5 1.50024 5.5C1.50024 5.8842 1.58691 6.24815 1.74176 6.57338C1.87695 6.85734 2.18511 7 2.49961 7H6.00006M3.50006 3C8.77214 3 11.728 3 17.0001 3C20.0001 3 21.0001 4.5 21.0001 6.5C21.0001 6.60239 21.0001 7 21.0001 7V16.05M3.50006 3C5.50006 3 6.00006 4.5 6.00006 5.5C6.00006 6.0654 6.02368 6.56054 6.00006 7M21.0001 16.05C22.1412 16.2816 23.0001 17.2905 23.0001 18.5C23.0001 19.8807 21.8808 21 20.5001 21H7.50006M21.0001 16.05H8.00006C8.66673 16.2 10.0001 16.9 10.0001 18.5C10.0001 20.5 8.00006 21 7.50006 21M7.50006 21C6.11935 21 5.00006 19.8807 5.00006 18.5C5.00006 18.3976 5.00006 18 5.00006 18C5.00006 18 4.97908 17.3976 5.00006 17C5.13621 14.42 5.83572 10.0582 6.00006 7" stroke="#009DDB" stroke-width="2" stroke-linecap="round" stroke-linejoin="round"/>
<path d="M17 7H9" stroke="#009DDB" stroke-width="2" stroke-linecap="round" stroke-linejoin="round"/>
<path d="M17 11H9" stroke="#009DDB" stroke-width="2" stroke-linecap="round" stroke-linejoin="round"/>
</svg>
