<svg width="40" height="40" viewBox="0 0 40 40" >
<path fill-rule="evenodd" clip-rule="evenodd" d="M20 0C31.0378 0 40 8.95021 40 20C40 31.0378 31.0498 40 20 40C8.96221 40 0 31.0498 0 20C0 8.96221 8.95021 0 20 0ZM15.3209 9.0222H24.6791C28.1944 9.0222 31.0618 11.8656 31.0618 15.3209V24.6551C31.0618 28.1224 28.1944 30.9538 24.6791 30.9538H15.3209C11.8056 30.9538 8.93821 28.1224 8.93821 24.6551V15.3209C8.93821 11.8536 11.8176 9.0222 15.3209 9.0222ZM19.94 14.0732C23.3593 14.0732 26.1308 16.8446 26.1308 20.2639C26.1308 23.6833 23.3593 26.4547 19.94 26.4547C16.5207 26.4547 13.7492 23.6833 13.7492 20.2639C13.7492 16.8446 16.5207 14.0732 19.94 14.0732ZM19.94 16.1608C22.1956 16.1608 24.0312 17.9964 24.0312 20.2519C24.0312 22.5075 22.1956 24.3431 19.94 24.3431C17.6725 24.3431 15.8488 22.5075 15.8488 20.2519C15.8488 17.9964 17.6845 16.1608 19.94 16.1608ZM25.9268 13.2094C26.4787 13.2094 26.9346 13.6533 26.9346 14.2172C26.9346 14.769 26.4907 15.225 25.9268 15.225C25.3749 15.225 24.919 14.781 24.919 14.2172C24.919 13.6653 25.3629 13.2094 25.9268 13.2094ZM16.0888 10.8098H23.9112C26.8506 10.8098 29.2501 13.1974 29.2501 16.1248V23.9952C29.2501 26.9226 26.8506 29.3101 23.9112 29.3101H16.0888C13.1494 29.3101 10.7498 26.9226 10.7498 23.9952V16.1248C10.7498 13.1974 13.1494 10.8098 16.0888 10.8098Z" fill="#000"/>
</svg>
