<svg width="24" height="24" fill="#000" viewBox="0 0 24 24">
<path fill-rule="evenodd" d="M15.726 8.312a1 1 0 0 1-.038 1.414l-4.216 4a1 1 0 0 1-1.371.005l-1.784-1.667a1 1 0 1 1 1.366-1.461l1.095 1.024 3.534-3.353a1 1 0 0 1 1.414.038Z" clip-rule="evenodd"/>
<path fill-rule="evenodd" d="M10.084 2.618a2.591 2.591 0 0 1 3.832 0c.155.17.396.235.616.165a2.591 2.591 0 0 1 3.318 1.915c.05.226.226.402.451.452a2.591 2.591 0 0 1 1.916 3.318.591.591 0 0 0 .165.616 2.592 2.592 0 0 1 0 3.832.591.591 0 0 0-.165.616 2.591 2.591 0 0 1-1.916 3.318.592.592 0 0 0-.451.451 2.591 2.591 0 0 1-3.318 1.916.591.591 0 0 0-.617.165 2.591 2.591 0 0 1-3.83 0 .591.591 0 0 0-.617-.165 2.591 2.591 0 0 1-3.318-1.916.592.592 0 0 0-.452-.451 2.591 2.591 0 0 1-1.915-3.318.592.592 0 0 0-.165-.617 2.591 2.591 0 0 1 0-3.83.591.591 0 0 0 .165-.617A2.591 2.591 0 0 1 5.698 5.15a.591.591 0 0 0 .452-.452 2.591 2.591 0 0 1 3.318-1.915c.22.07.46.005.616-.165Zm2.353 1.347a.591.591 0 0 0-.874 0 2.591 2.591 0 0 1-2.702.724.591.591 0 0 0-.757.437 2.591 2.591 0 0 1-1.978 1.978.591.591 0 0 0-.437.757c.307.965.024 2.02-.724 2.702a.591.591 0 0 0 0 .874 2.591 2.591 0 0 1 .724 2.702.591.591 0 0 0 .437.757c.989.216 1.761.99 1.978 1.978.074.34.425.543.757.437a2.592 2.592 0 0 1 2.702.724c.234.258.64.258.874 0a2.592 2.592 0 0 1 2.702-.724.591.591 0 0 0 .757-.437 2.592 2.592 0 0 1 1.978-1.978.591.591 0 0 0 .437-.757 2.592 2.592 0 0 1 .724-2.702.591.591 0 0 0 0-.874 2.592 2.592 0 0 1-.724-2.702.591.591 0 0 0-.437-.757 2.591 2.591 0 0 1-1.978-1.978.591.591 0 0 0-.757-.437 2.591 2.591 0 0 1-2.702-.724Z" clip-rule="evenodd"/>
<path fill-rule="evenodd" d="M7 16a1 1 0 0 1 1 1v3.78l3.804-.76a1 1 0 0 1 .392 0l3.804.76V17a1 1 0 1 1 2 0v5a1 1 0 0 1-1.196.98L12 22.02l-4.804.96A1 1 0 0 1 6 22v-5a1 1 0 0 1 1-1Z" clip-rule="evenodd"/>
</svg>