<svg width="32" height="32" viewBox="0 0 32 32" fill="none" xmlns="http://www.w3.org/2000/svg">
<path d="M27.9376 14.4374C28.9032 14.4374 29.3064 13.1968 28.522 12.6249L16.5876 3.94365C16.4172 3.81878 16.2114 3.75146 16.0001 3.75146C15.7888 3.75146 15.583 3.81878 15.4126 3.94365L3.47824 12.6249C2.69386 13.1937 3.09699 14.4374 4.06574 14.4374H6.00011V26.1249H3.75011C3.61261 26.1249 3.50011 26.2374 3.50011 26.3749V27.9999C3.50011 28.1374 3.61261 28.2499 3.75011 28.2499H28.2501C28.3876 28.2499 28.5001 28.1374 28.5001 27.9999V26.3749C28.5001 26.2374 28.3876 26.1249 28.2501 26.1249H26.0001V14.4374H27.9376ZM16.0001 6.14678L24.472 12.3093H7.52824L16.0001 6.14678ZM8.25011 14.4374H11.9064V26.1249H8.25011V14.4374ZM14.1564 14.4374H17.8126V26.1249H14.1564V14.4374ZM23.7501 26.1249H20.0626V14.4374H23.7501V26.1249Z" fill="#009DDB"/>
</svg>
