<svg width="24" height="24" viewBox="0 0 24 24" fill="none" xmlns="http://www.w3.org/2000/svg">
<path d="M14.2 6.125C14.2 7.29861 11.9167 8.25 9.1 8.25C6.28335 8.25 4 7.29861 4 6.125M14.2 6.125C14.2 4.95139 11.9167 4 9.1 4C6.28335 4 4 4.95139 4 6.125M14.2 6.125V9.525M4 6.125V9.525M14.2 9.525C14.2 10.6986 11.9167 11.65 9.1 11.65C6.28335 11.65 4 10.6986 4 9.525M14.2 9.525V13.4709M4 9.525V12.925M4 12.925C4 14.0986 6.28335 15.05 9.1 15.05C9.76748 15.05 10.405 14.9966 10.9893 14.8994M4 12.925V16.325C4 17.4986 6.28335 18.45 9.1 18.45C9.69608 18.45 10.2683 18.4074 10.8 18.3291M21 15.475C21 16.6486 18.7167 17.6 15.9 17.6C13.0833 17.6 10.8 16.6486 10.8 15.475M21 15.475C21 14.3014 18.7167 13.35 15.9 13.35C15.3039 13.35 14.7317 13.3926 14.2 13.4709M21 15.475V18.875C21 20.0486 18.7167 21 15.9 21C13.0833 21 10.8 20.0486 10.8 18.875V18.3291M10.8 15.475V18.3291M10.8 15.475C10.8 15.2755 10.866 15.0825 10.9893 14.8994M10.9893 14.8994C11.438 14.2334 12.6462 13.6997 14.2 13.4709" stroke="#009DDB" stroke-width="2" stroke-linecap="round"/>
</svg>
