<svg width="32" height="32" viewBox="0 0 32 32" fill="none" xmlns="http://www.w3.org/2000/svg">
<path fill-rule="evenodd" clip-rule="evenodd" d="M16 31C24.2843 31 31 24.2843 31 16C31 7.71573 24.2843 1 16 1C7.71573 1 1 7.71573 1 16C1 24.2843 7.71573 31 16 31ZM16 32C24.8366 32 32 24.8366 32 16C32 7.16344 24.8366 0 16 0C7.16344 0 0 7.16344 0 16C0 24.8366 7.16344 32 16 32Z" fill="#DCE3EB"/>
<path d="M22.2587 18.9467V20.9467C22.2595 21.1324 22.2215 21.3162 22.1471 21.4863C22.0727 21.6564 21.9636 21.8091 21.8268 21.9346C21.69 22.0602 21.5285 22.1557 21.3526 22.2152C21.1767 22.2747 20.9903 22.2968 20.8054 22.2801C18.754 22.0572 16.7834 21.3562 15.0521 20.2334C13.4413 19.2098 12.0756 17.8442 11.0521 16.2334C9.9254 14.4942 9.22424 12.5141 9.00541 10.4534C8.98875 10.269 9.01066 10.0832 9.06974 9.90781C9.12883 9.73239 9.22379 9.57119 9.34859 9.43448C9.47339 9.29777 9.62528 9.18854 9.79461 9.11375C9.96393 9.03895 10.147 9.00024 10.3321 9.00006H12.3321C12.6556 8.99688 12.9693 9.11145 13.2146 9.32242C13.4599 9.53339 13.6201 9.82636 13.6654 10.1467C13.7498 10.7868 13.9064 11.4152 14.1321 12.0201C14.2218 12.2587 14.2412 12.518 14.188 12.7673C14.1348 13.0166 14.0113 13.2455 13.8321 13.4267L12.9854 14.2734C13.9344 15.9424 15.3164 17.3244 16.9854 18.2734L17.8321 17.4267C18.0133 17.2475 18.2422 17.124 18.4915 17.0708C18.7408 17.0176 19.0001 17.037 19.2387 17.1267C19.8436 17.3524 20.472 17.509 21.1121 17.5934C21.4359 17.6391 21.7317 17.8022 21.9431 18.0517C22.1545 18.3013 22.2669 18.6198 22.2587 18.9467Z" stroke="#7A97AB" stroke-linecap="round" stroke-linejoin="round"/>
</svg>
