<svg width="32" height="32" viewBox="0 0 32 32" fill="none" xmlns="http://www.w3.org/2000/svg">
<path d="M20 13C20 14.3261 20.5268 15.5979 21.4645 16.5355C22.4021 17.4732 23.6739 18 25 18C26.3261 18 27.5979 17.4732 28.5355 16.5355C29.4732 15.5979 30 14.3261 30 13C30.0001 12.8449 29.9642 12.6918 29.895 12.553L25.895 4.553C25.7874 4.33752 25.6057 4.16811 25.3832 4.07589C25.1608 3.98366 24.9125 3.97483 24.684 4.051L18.353 6.161C18.0023 5.71518 17.5335 5.37669 17 5.184V2H15V5.184C14.4263 5.38682 13.928 5.75958 13.5715 6.25263C13.2149 6.74569 13.0169 7.33566 13.004 7.944L6.684 10.051C6.43255 10.1348 6.22466 10.315 6.106 10.552L2.106 18.552C2.03631 18.6911 2.00001 18.8445 2 19C2 20.3261 2.52678 21.5979 3.46447 22.5355C4.40215 23.4732 5.67392 24 7 24C8.32608 24 9.59785 23.4732 10.5355 22.5355C11.4732 21.5979 12 20.3261 12 19C12.0001 18.8449 11.9642 18.6918 11.895 18.553L8.41 11.584L13.647 9.838C13.9976 10.2839 14.4664 10.6225 15 10.815V28H6V30H26V28H17V10.816C17.5737 10.6132 18.072 10.2404 18.4285 9.74737C18.7851 9.25431 18.9831 8.66434 18.996 8.056L23.026 6.712L20.106 12.552C20.0363 12.6911 20 12.8445 20 13ZM7 22C6.38177 21.9978 5.77936 21.8044 5.27538 21.4464C4.77139 21.0883 4.39052 20.5831 4.185 20H9.815C9.60948 20.5831 9.22861 21.0883 8.72462 21.4464C8.22064 21.8044 7.61823 21.9978 7 22V22ZM9.382 18H4.618L7 13.236L9.382 18ZM16 9C15.8022 9 15.6089 8.94135 15.4444 8.83147C15.28 8.72159 15.1518 8.56541 15.0761 8.38268C15.0004 8.19996 14.9806 7.99889 15.0192 7.80491C15.0578 7.61093 15.153 7.43275 15.2929 7.29289C15.4327 7.15304 15.6109 7.0578 15.8049 7.01921C15.9989 6.98063 16.2 7.00043 16.3827 7.07612C16.5654 7.15181 16.7216 7.27998 16.8315 7.44443C16.9414 7.60888 17 7.80222 17 8C17 8.26522 16.8946 8.51957 16.7071 8.70711C16.5196 8.89464 16.2652 9 16 9ZM25 16C24.3818 15.9978 23.7794 15.8044 23.2754 15.4464C22.7714 15.0883 22.3905 14.5831 22.185 14H27.815C27.6095 14.5831 27.2286 15.0883 26.7246 15.4464C26.2206 15.8044 25.6182 15.9978 25 16V16ZM25 7.236L27.382 12H22.618L25 7.236Z" fill="#009DDB"/>
</svg>
