<svg width="24" height="24" viewBox="0 0 24 24" >
<path d="M11.1033 2.81699C11.4701 2.07374 12.5299 2.07374 12.8967 2.81699L15.294 7.67446C15.4397 7.9696 15.7213 8.17417 16.047 8.2215L21.4075 9.00043C22.2277 9.11961 22.5552 10.1276 21.9617 10.7061L18.0828 14.4871C17.8471 14.7169 17.7396 15.0479 17.7952 15.3723L18.7109 20.7111C18.851 21.528 17.9936 22.151 17.26 21.7653L12.4653 19.2446C12.174 19.0915 11.826 19.0915 11.5347 19.2446L6.74005 21.7653C6.00642 22.151 5.14899 21.528 5.2891 20.7111L6.20479 15.3723C6.26043 15.0479 6.15288 14.7169 5.91719 14.4871L2.03827 10.7061C1.44476 10.1276 1.77226 9.11961 2.59249 9.00043L7.95302 8.2215C8.27873 8.17417 8.5603 7.9696 8.70596 7.67446L11.1033 2.81699Z" fill="#000"/>
<path fill-rule="evenodd" clip-rule="evenodd" d="M12 5.5191L10.4994 8.55959C10.0624 9.44502 9.21775 10.0587 8.24062 10.2007L4.88524 10.6883L7.31322 13.055C8.02027 13.7442 8.34292 14.7372 8.17601 15.7104L7.60284 19.0522L10.604 17.4744C11.4779 17.0149 12.5221 17.0149 13.396 17.4744L16.3972 19.0522L15.824 15.7104C15.6571 14.7372 15.9797 13.7442 16.6868 13.055L19.1148 10.6883L15.7594 10.2007C14.7823 10.0587 13.9376 9.44502 13.5006 8.55959L12 5.5191ZM12.8967 2.81699C12.5299 2.07374 11.4701 2.07374 11.1033 2.81699L8.70596 7.67446C8.5603 7.9696 8.27873 8.17417 7.95302 8.2215L2.59249 9.00043C1.77226 9.11961 1.44476 10.1276 2.03827 10.7061L5.91719 14.4871C6.15288 14.7169 6.26043 15.0479 6.20479 15.3723L5.2891 20.7111C5.14899 21.528 6.00642 22.151 6.74005 21.7653L11.5347 19.2446C11.826 19.0915 12.174 19.0915 12.4653 19.2446L17.26 21.7653C17.9936 22.151 18.851 21.528 18.7109 20.7111L17.7952 15.3723C17.7396 15.0479 17.8471 14.7169 18.0828 14.4871L21.9617 10.7061C22.5552 10.1276 22.2277 9.11961 21.4075 9.00043L16.047 8.2215C15.7213 8.17417 15.4397 7.9696 15.294 7.67446L12.8967 2.81699Z" fill="#000"/>
</svg>
