<svg width="24" height="24" viewBox="0 0 24 24" fill="none" xmlns="http://www.w3.org/2000/svg">
<path fill-rule="evenodd" clip-rule="evenodd" d="M11.2358 14.8923C10.9142 14.6138 10.5456 14.0578 11.282 13.4079C11.322 13.3709 11.3619 13.334 11.4019 13.297C12.7673 12.0331 14.1127 10.7475 15.4376 9.44059C15.4623 9.41621 15.487 9.39183 15.5117 9.36744L15.5152 9.36399C15.7151 9.16655 15.9145 8.96864 16.1134 8.77024C16.6157 8.26398 17.118 7.14492 15.4762 8.13121L15.472 8.13377C15.309 8.23182 15.1249 8.35056 14.9177 8.49262L8.4296 12.8976C8.4296 12.8976 7.69242 13.3613 6.31201 12.9441C5.78153 12.7838 5.21707 12.6028 4.72309 12.4408C4.7021 12.4339 4.68125 12.427 4.66053 12.4202C3.8997 12.1701 3.32111 11.9701 3.32111 11.9701C3.32111 11.9701 2.35817 11.3634 3.76735 10.6793C3.86716 10.6309 3.97887 10.5821 4.10366 10.533L14.8254 6.07992C15.8834 5.61696 19.4729 4.13259 19.4729 4.13259C19.4729 4.13259 21.1296 3.48268 20.9919 5.06012C20.9588 5.52466 20.7612 6.81833 20.5171 8.41611L20.5068 8.48326C20.412 9.10103 20.3103 9.76419 20.2093 10.4399L19.059 17.7214C19.059 17.7214 18.9666 18.7885 18.1841 18.9731C17.4023 19.1592 16.1142 18.3247 15.8834 18.1386C15.8436 18.1081 15.6581 17.9862 15.3794 17.8032L15.3698 17.7968C14.3631 17.1336 12.169 15.688 11.2358 14.8923ZM14.6946 19.7476C14.6765 19.7354 14.6505 19.718 14.6154 19.6947C14.534 19.6407 14.4223 19.5673 14.2818 19.4751L14.2791 19.4733L14.2074 19.4261C13.2207 18.7761 10.9677 17.292 9.93808 16.4141L9.93243 16.4092L9.9268 16.4044C9.64352 16.1591 9.1415 15.6447 8.9396 14.8576C8.74749 14.9288 8.51384 14.9972 8.24039 15.0461C7.57518 15.165 6.72688 15.1589 5.73337 14.8586C5.01767 14.6423 4.25017 14.3922 3.66752 14.1983C3.37485 14.101 3.126 14.0168 2.94997 13.9569C2.8619 13.927 2.79194 13.903 2.74369 13.8865L2.66809 13.8604L3.32111 11.9701C2.25501 13.6622 2.25293 13.6609 2.25293 13.6609L2.25081 13.6596L2.24646 13.6568L2.23735 13.651L2.21747 13.638C2.20351 13.6288 2.18806 13.6184 2.17131 13.6068C2.13798 13.5838 2.09859 13.5554 2.05495 13.5217C1.96985 13.456 1.85737 13.3615 1.73817 13.2378C1.5313 13.0232 1.13577 12.5476 1.02722 11.8278C0.899478 10.9807 1.22648 10.2259 1.73886 9.68922C2.18333 9.22369 2.76594 8.9116 3.35301 8.67915L14.0412 4.23998C14.5973 3.99709 15.7636 3.50854 16.7768 3.08646C17.2929 2.87142 17.7757 2.67096 18.1295 2.52428L18.708 2.28467L19.4729 4.13259C18.7425 2.27074 18.744 2.27016 18.744 2.27016L18.7455 2.26957L18.7487 2.26833L18.7555 2.26568L18.7714 2.25963C18.7829 2.25529 18.7963 2.25032 18.8115 2.24484C18.8417 2.23391 18.8794 2.22077 18.9236 2.20636C19.0109 2.17788 19.1289 2.14265 19.2686 2.10955C19.5237 2.04911 19.9604 1.96889 20.4582 2.01241C20.9606 2.05633 21.7425 2.25133 22.3403 2.95893C22.9359 3.6638 23.0442 4.51635 22.9856 5.21816C22.9439 5.77514 22.7422 7.09508 22.5199 8.54948C22.5088 8.62206 22.4977 8.69498 22.4865 8.76815L22.4844 8.78179C22.3893 9.40145 22.2879 10.0625 22.1874 10.7355L22.1861 10.7438L21.0413 17.99C21.0395 18.0052 21.0373 18.0218 21.0349 18.0395C21.0258 18.1057 21.0123 18.1904 20.9924 18.2887C20.9537 18.4794 20.8849 18.7506 20.7608 19.048C20.5354 19.5883 19.9476 20.612 18.6431 20.9197C18.0274 21.0653 17.4584 20.9855 17.0705 20.8945C16.6603 20.7983 16.2845 20.6488 15.9838 20.5089C15.4511 20.2612 14.9675 19.9553 14.6946 19.7476ZM19.4729 4.13259L18.708 2.28467L18.7255 2.2774L18.7425 2.27074L19.4729 4.13259ZM3.32111 11.9701L2.66809 13.8604L2.44988 13.785L2.25501 13.6622L2.78806 12.8161L3.32111 11.9701Z" fill="#009DDB"/>
</svg>
