<svg width="40" height="40" viewBox="0 0 40 40" >
<path fill-rule="evenodd" clip-rule="evenodd" d="M40 20C40 31.046 31.046 40 20 40C8.954 40 0 31.046 0 20C0 8.954 8.954 0 20 0C31.046 0 40 8.954 40 20ZM21.792 14.277L8.324 19.827C5.954 20.751 7.341 21.618 7.341 21.618C7.341 21.618 9.364 22.312 11.098 22.832C12.832 23.352 13.758 22.774 13.758 22.774L21.908 17.284C24.798 15.318 24.104 16.936 23.41 17.63C21.4239 19.595 19.4005 21.5221 17.341 23.41C16.416 24.22 16.879 24.913 17.283 25.26C18.459 26.255 21.229 28.065 22.488 28.888C22.838 29.116 23.071 29.268 23.121 29.306C23.411 29.538 25.029 30.578 26.011 30.346C26.994 30.116 27.11 28.786 27.11 28.786L28.555 19.711C28.683 18.861 28.812 18.027 28.932 17.251C29.243 15.231 29.496 13.591 29.538 13.006C29.711 11.04 27.63 11.85 27.63 11.85C27.63 11.85 23.121 13.7 21.792 14.277V14.277Z" fill="#000"/>
</svg>
