<svg width="40" height="40" viewBox="0 0 40 40" >
<path fill-rule="evenodd" clip-rule="evenodd" d="M20 40C8.954 40 0 31.046 0 20C0 8.954 8.954 0 20 0C31.046 0 40 8.954 40 20C40 31.046 31.046 40 20 40ZM27.267 14.146L26.954 14.815C26.954 14.815 25.472 17.963 23.667 19.946C23.087 20.588 22.792 20.781 22.472 20.781C22.214 20.781 22.095 20.566 22.095 19.988V14H16.483V14.459C16.483 15.127 17.508 15.278 17.508 17.088V20.822C17.508 21.574 17.468 21.865 17.112 21.865C16.168 21.865 13.928 18.632 12.67 14.961L12.358 14H8.692C8.293 14 8 14.271 8 14.668C8 15.398 8.86 18.778 12.23 23.306C14.493 26.352 17.468 28 20.148 28C21.783 28 22.179 27.729 22.179 27.041V24.704C22.179 24.12 22.41 23.869 22.746 23.869C23.123 23.869 23.787 23.989 25.342 25.518C25.344 25.518 27.834 28 27.834 28H31.394C31.709 28 32.002 27.855 32.002 27.333C32.002 26.643 31.102 25.413 29.719 23.953C29.154 23.203 28.232 22.388 27.939 22.011C27.521 21.574 27.646 21.324 27.939 20.865C27.939 20.865 31.102 16.42 31.416 14.961C31.522 14.439 31.291 14.146 30.746 14.146H27.268H27.267Z" fill="#000"/>
</svg>
