<svg width="24" height="24" viewBox="0 0 24 24" fill="none" xmlns="http://www.w3.org/2000/svg">
<path d="M14.2209 11.3692L14.2209 11.3692C13.9558 11.7479 13.9558 12.2521 14.2209 12.6308L14.2209 12.6308L18.4564 18.6815C18.9514 19.3886 18.3553 20.4731 17.404 20.3668C15.6409 20.1697 13.6495 20 12 20C10.3505 20 8.35907 20.1697 6.59599 20.3668C5.64472 20.4731 5.04861 19.3886 5.54361 18.6815L9.77909 12.6308C10.0442 12.2521 10.0442 11.7479 9.77909 11.3692L5.54361 5.31851C5.04861 4.61136 5.64472 3.52686 6.59599 3.63319C8.35907 3.83026 10.3505 4 12 4C13.6495 4 15.6409 3.83026 17.404 3.63319C18.3553 3.52686 18.9514 4.61136 18.4564 5.3185L14.2209 11.3692Z" stroke="#009DDB" stroke-width="2"/>
<path d="M10.6499 9.31235L11.6096 10.512C11.8097 10.7622 12.1903 10.7622 12.3904 10.512L13.3501 9.31235C13.612 8.98497 13.3789 8.5 12.9597 8.5H11.0403C10.6211 8.5 10.388 8.98497 10.6499 9.31235Z" fill="#009DDB"/>
<path d="M8.85636 17.7507L11.3415 15.5762C11.7185 15.2463 12.2815 15.2463 12.6585 15.5762L15.1436 17.7507C15.3756 17.9536 15.1846 18.3465 14.8805 18.2965C14.0395 18.1581 12.8852 18 12 18C11.1148 18 9.96046 18.1581 9.11947 18.2965C8.81535 18.3465 8.62441 17.9536 8.85636 17.7507Z" fill="#009DDB"/>
</svg>
