<svg xmlns="http://www.w3.org/2000/svg" width="200" height="24" fill="none" viewBox="0 0 200 24"><path fill="#212121" d="M66.74 5.382c1.284-1.109 3.308-1.663 6.075-1.663h1.327V2.206h4.339v1.5h1.304c2.764 0 4.788.554 6.072 1.663 1.285 1.108 1.926 2.936 1.925 5.484 0 2.554-.659 4.422-1.977 5.604-1.319 1.182-3.277 1.774-5.877 1.777h-1.452v1.662h-4.339v-1.661h-1.432c-2.614 0-4.581-.592-5.9-1.776-1.32-1.184-1.983-3.047-1.991-5.59 0-2.54.642-4.369 1.927-5.488m3.591 8.51c.678.554 1.628.831 2.848.83h.962V7.229h-.83a8.205 8.205 0 0 0-1.853.179 2.722 2.722 0 0 0-1.237.606c-.33.314-.565.714-.677 1.153a6.722 6.722 0 0 0-.207 1.82c0 1.38.339 2.348 1.016 2.907m8.129.832h.968c1.226 0 2.174-.276 2.835-.832.66-.556.996-1.523.996-2.907a6.887 6.887 0 0 0-.207-1.82c-.111-.44-.346-.84-.677-1.154a2.724 2.724 0 0 0-1.242-.606 8.184 8.184 0 0 0-1.848-.178h-.823l-.002 7.497ZM90.26 18.652c-.715-.68-1.072-1.626-1.07-2.837a4.389 4.389 0 0 1 .235-1.451 2.76 2.76 0 0 1 .772-1.17 3.723 3.723 0 0 1 1.39-.768 6.859 6.859 0 0 1 2.117-.287h1.252c.355 0 .685.02.977.037.293.017.575.034.844.061.269.027.548.044.83.058v-.911a1.329 1.329 0 0 0-.1-.648 1.298 1.298 0 0 0-.396-.515 2.764 2.764 0 0 0-1.558-.34 2.88 2.88 0 0 0-1.477.303 1.43 1.43 0 0 0-.433.505 1.465 1.465 0 0 0-.162.652H89.52c.023-.748.19-1.484.488-2.167a3.556 3.556 0 0 1 1.18-1.427 4.962 4.962 0 0 1 1.875-.767 12.617 12.617 0 0 1 2.597-.231c1.883 0 3.346.352 4.388 1.055 1.042.703 1.563 1.877 1.564 3.522v7.988h-3.99v-2.313h-.402a3.462 3.462 0 0 1-1.436 1.973 4.565 4.565 0 0 1-2.583.679c-1.25 0-2.233-.34-2.949-1.02m6.588-2.313c.24-.148.438-.358.573-.609.136-.25.204-.533.199-.82v-.634c-.458-.033-.87-.057-1.236-.073a21.677 21.677 0 0 0-1.024-.024c-.356-.01-.712.03-1.057.121-.22.06-.426.164-.606.307a.8.8 0 0 0-.275.41c-.04.157-.06.319-.06.48-.017.194.018.39.1.565.083.175.21.324.368.432.423.219.895.318 1.367.288a3.173 3.173 0 0 0 1.663-.424M106.941 19.319a4.675 4.675 0 0 1-2.053-1.19 5.235 5.235 0 0 1-1.229-2.182 11.849 11.849 0 0 1-.405-3.352c0-1.117.043-2.193.13-3.228a8.77 8.77 0 0 1 .708-2.835 6.021 6.021 0 0 1 1.731-2.215 7.423 7.423 0 0 1 3.175-1.365c1.248-.288 2.328-.544 3.24-.767a19.205 19.205 0 0 0 2.304-.697l.936 3.354c-.651.25-1.316.458-1.992.624-.701.177-1.583.378-2.639.6a5.048 5.048 0 0 0-1.75.645c-.418.259-.778.601-1.057 1.006-.257.4-.434.844-.523 1.31a8.995 8.995 0 0 0-.171 1.535h.385a3.298 3.298 0 0 1 1.341-1.736 4.456 4.456 0 0 1 2.508-.67 6.094 6.094 0 0 1 1.849.274 3.919 3.919 0 0 1 1.525.912 4.411 4.411 0 0 1 1.04 1.676 7.46 7.46 0 0 1 .378 2.567c.027.98-.11 1.956-.406 2.89a4.351 4.351 0 0 1-1.214 1.873 4.715 4.715 0 0 1-2.011 1.005c-.945.215-1.912.316-2.881.302a10.352 10.352 0 0 1-2.918-.362m4.802-3.381c.406-.446.611-1.248.611-2.397 0-1.072-.199-1.817-.601-2.232-.401-.415-1.033-.623-1.891-.623a2.73 2.73 0 0 0-1.908.623c-.447.415-.671 1.159-.671 2.232 0 1.15.212 1.95.637 2.397.426.446 1.074.67 1.956.67.882 0 1.476-.225 1.884-.67M123.779 18.946a3.673 3.673 0 0 1-1.316-2.136h-.401v6.91h-4.048V7.117h4.048v2.515h.412c.182-.84.647-1.59 1.315-2.123a4.065 4.065 0 0 1 2.568-.757 6.377 6.377 0 0 1 2.074.303c.59.201 1.111.571 1.498 1.065.445.595.755 1.283.907 2.014.22 1.03.321 2.084.3 3.138.02 1.046-.081 2.09-.3 3.111a4.876 4.876 0 0 1-.907 1.965 3.256 3.256 0 0 1-1.498 1.024c-.67.216-1.371.32-2.074.307a4.134 4.134 0 0 1-2.568-.747m-1.012-8.594c-.452.317-.674.894-.725 1.706v2.173c0 .866.232 1.467.701 1.804a2.812 2.812 0 0 0 1.712.516c.416.008.832-.038 1.236-.137.315-.076.6-.246.819-.487.234-.288.389-.633.449-1a8.672 8.672 0 0 0 .132-1.671 8.015 8.015 0 0 0-.145-1.708 2.541 2.541 0 0 0-.445-1.023 1.523 1.523 0 0 0-.81-.512 5.038 5.038 0 0 0-1.236-.133 2.85 2.85 0 0 0-1.686.475M140.93 12.957l-4.986 6.461h-2.929V7.226h3.828v6.512l4.844-6.512h3.047v12.192h-3.804v-6.46ZM159.499 19.418h-4.609l-2.905-5.046h-1.345v5.046h-4.032V7.226h4.032v6.147l4.055-6.147h4.465l-3.864 5.561 4.203 6.631ZM161.06 18.633c-.728-.68-1.092-1.623-1.092-2.83a4.234 4.234 0 0 1 .245-1.454c.156-.45.427-.853.786-1.167a3.84 3.84 0 0 1 1.422-.765 7.141 7.141 0 0 1 2.16-.287h1.261c.366 0 .679.02.993.037.315.016.587.034.861.061.273.027.56.045.848.059v-.908a1.302 1.302 0 0 0-.495-1.167 2.874 2.874 0 0 0-1.591-.339 2.99 2.99 0 0 0-1.505.302 1.443 1.443 0 0 0-.608 1.154h-4.069c.024-.747.193-1.48.498-2.162a3.564 3.564 0 0 1 1.218-1.422 5.09 5.09 0 0 1 1.919-.766 13.13 13.13 0 0 1 2.646-.23c1.923 0 3.418.339 4.476 1.052 1.057.714 1.591 1.873 1.591 3.51v7.969h-4.07v-2.297h-.41a3.42 3.42 0 0 1-1.445 1.992 4.734 4.734 0 0 1-2.632.678c-1.275 0-2.278-.34-3.011-1.017m6.721-2.308a1.62 1.62 0 0 0 .777-1.446v-.632a45.558 45.558 0 0 0-1.262-.075 22.526 22.526 0 0 0-1.041-.023 3.883 3.883 0 0 0-1.081.122c-.224.06-.434.164-.617.305a.792.792 0 0 0-.287.41 1.93 1.93 0 0 0-.061.48 1.073 1.073 0 0 0 .478.994c.431.218.912.317 1.394.287a3.281 3.281 0 0 0 1.695-.425M182.687 11.615V7.226h3.999v12.192h-3.999v-4.682h-4.19v4.682h-3.999V7.226h3.999v4.39h4.19ZM199.577 10.347h-3.843v9.071h-4.033v-9.07h-3.843V7.225h11.719v3.121Z"/><path fill="#009DDB" d="m19.783 22.102 18.768-18.91A10.94 10.94 0 0 1 44.567.133a10.9 10.9 0 0 1 6.657 1.061 11.006 11.006 0 0 1 4.783 4.781 11.112 11.112 0 0 1 1.104 6.695 11.074 11.074 0 0 1-2.992 6.081 10.943 10.943 0 0 1-5.959 3.171 10.9 10.9 0 0 1-6.675-.937 11.001 11.001 0 0 1-4.87-4.69v-.04l.077-.041 3.656-3.687c.203.822.57 1.593 1.081 2.266a6.164 6.164 0 0 0 1.886 1.646 6.114 6.114 0 0 0 2.962.765h.05a6.124 6.124 0 0 0 2.908-.731 6.173 6.173 0 0 0 2.22-2.027A6.23 6.23 0 0 0 50.228 6.2a6.116 6.116 0 0 0-5.706-1.12 6.15 6.15 0 0 0-2.564 1.565L26.624 22.102h-6.841ZM37.683 0 18.807 18.7a11.08 11.08 0 0 1-6.055 3.03c-2.29.356-4.634-.01-6.701-1.047a10.986 10.986 0 0 1-4.818-4.73A10.832 10.832 0 0 1 .12 9.327a10.887 10.887 0 0 1 3.01-6.019A11.076 11.076 0 0 1 9.128.17a11.14 11.14 0 0 1 6.72.926c2.087 1 3.802 2.623 4.904 4.641v.023l-.077.04-3.682 3.661A6.099 6.099 0 0 0 15.9 7.213a6.169 6.169 0 0 0-1.91-1.628 6.248 6.248 0 0 0-2.975-.75h-.051a6.244 6.244 0 0 0-2.927.717A6.172 6.172 0 0 0 5.8 7.553a6.075 6.075 0 0 0-.575 5.762 6.137 6.137 0 0 0 1.798 2.396 6.222 6.222 0 0 0 2.728 1.27 6.254 6.254 0 0 0 3.011-.154 6.206 6.206 0 0 0 2.58-1.544L30.79 0h6.894Z"/></svg>